# xmcd
#
# Track frame offsets:
#	150
#	12315
#	29020
#	48255
#	62567
#	82135
#	95867
#	111530
#	123770
#	141352
#
# Disc length: 2077 seconds
#
# Revision: 3
# Processed by: cddbd v1.4PL0 Copyright (c) Steve Scherf et al.
# Submitted via: MusicWizard 6.0.2
#
DISCID=90081b0a
DTITLE=Marcia Ball - Gatorhythms
DYEAR=1989
DGENRE=Blues
TTITLE0=How You Carry On
TTITLE1=La Ti Da
TTITLE2=The Power Of Love
TTITLE3=Mobile
TTITLE4=Find Another Fool
TTITLE5=Mama's Cooking
TTITLE6=What's A Girl To Do
TTITLE7=Daddy Said
TTITLE8=You'll Come Around
TTITLE9=Red Hot
EXTD=Rounder RCD-3101\n\nMarcia Ball:  vocals, piano, accordion and organ\nRodney Craig:  drums, c
EXTD=owbell and triangle\nStephen Bruton: electric, acoustic and slide guitars\nDerek O'Brien:  gu
EXTD=itar\nJames Hinkle:  rhythm guitar\nJesse Taylor:  guitar\nMark Kazanoff:  tenor and baritone
EXTD=saxophones\nKeith Winking:  trumpet\nJohn blondell:  tromboe\nAngela Strehli:  background vo
EXTD=cals\nLou Ann Barton:  background vocals\n\nProduced by Marcia Ball and Steve Tillisch\nRecor
EXTD=ded and mixed by Steve Tillisch at Austin Recording Studio, Austin Texas\n
EXTT0=
EXTT1=
EXTT2=
EXTT3=
EXTT4=
EXTT5=
EXTT6=
EXTT7=
EXTT8=
EXTT9=
PLAYORDER=
